Coordinates
version=1
nRows=9
nColumns=63
inDegrees=yes

Units are S.I. units (second, meters, Newtons, ...)
If the header above contains a line with 'inDegrees', this indicates whether rotational values are in degrees (yes) or radians (no).

endheader
time	pelvis_tilt	pelvis_list	pelvis_rotation	pelvis_tx	pelvis_ty	pelvis_tz	hip_flexion_r	hip_adduction_r	hip_rotation_r	knee_angle_r	knee_angle_r_beta	ankle_angle_r	subtalar_angle_r	mtp_angle_r	hip_flexion_l	hip_adduction_l	hip_rotation_l	knee_angle_l	knee_angle_l_beta	ankle_angle_l	subtalar_angle_l	mtp_angle_l	L5_S1_Flex_Ext	L5_S1_Lat_Bending	L5_S1_axial_rotation	L4_L5_Flex_Ext	L4_L5_Lat_Bending	L4_L5_axial_rotation	L3_L4_Flex_Ext	L3_L4_Lat_Bending	L3_L4_axial_rotation	L2_L3_Flex_Ext	L2_L3_Lat_Bending	L2_L3_axial_rotation	L1_L2_Flex_Ext	L1_L2_Lat_Bending	L1_L2_axial_rotation	L1_T12_Flex_Ext	L1_T12_Lat_Bending	L1_T12_axial_rotation	Abs_r3	Abs_r2	Abs_r1	Abs_t1	Abs_t2	neck_flexion	neck_bending	neck_rotation	arm_flex_r	arm_add_r	arm_rot_r	elbow_flex_r	pro_sup_r	wrist_flex_r	wrist_dev_r	arm_flex_l	arm_add_l	arm_rot_l	elbow_flex_l	pro_sup_l	wrist_flex_l	wrist_dev_l
      1.01694915	     -7.72232255	     -6.05874269	     87.24623905	      0.21448317	      0.86892962	      0.49798969	     12.19226816	     -6.70536150	      7.55576363	     22.79044451	      0.39776829	     47.53963692	     -4.67807211	      0.00000000	      8.42706535	      7.89870510	     14.40592745	      8.90173904	      0.15536466	     40.35991693	    -17.13302633	      0.00000000	      0.25287826	     -0.84133662	      1.00729694	      0.46962022	     -1.11897770	      1.07025300	      0.41545370	     -2.04562585	      1.07025300	      0.28901456	     -2.04562585	      0.88138483	      0.23482275	     -1.71565363	      0.81842877	      0.14449464	     -1.30323042	      0.75547271	      1.80628413	     -9.51736809	      5.60228341	      0.00000000	      0.00000000	     23.48403223	      2.65150429	     -5.91687236	     18.60199803	    -10.21276527	     58.52992189	     58.35160972	     67.42183098	      5.78701252	     -3.01826495	     17.92569923	    -15.37114049	     62.59219353	     49.05797152	     74.65150614	      6.30688741	    -11.75081705
      1.03389831	     -8.32552933	     -6.19670675	     86.82799459	      0.21656868	      0.86763658	      0.49979490	     13.13824747	     -7.22841644	      7.41417966	     23.85420024	      0.41633433	     48.10903581	     -3.97225874	      0.00000000	      8.62765648	      8.36511491	     14.40800760	      8.74710439	      0.15266577	     40.10920207	    -17.34427879	      0.00000000	      0.27428109	     -0.94117714	      0.93855452	      0.50936741	     -1.25176560	      0.99721417	      0.45061640	     -2.28837810	      0.99721417	      0.31347586	     -2.28837810	      0.82123520	      0.25469742	     -1.91924843	      0.76257555	      0.15672421	     -1.45788339	      0.70391589	      1.95916239	    -10.64678405	      5.21995866	      0.00000000	      0.00000000	     23.74613179	      2.61309244	     -7.13784221	     18.95600999	    -10.57233847	     59.83389754	     58.09198898	     69.04301217	      4.52605958	     -5.29066780	     16.22707433	    -16.14495952	     57.83492168	     48.30370425	     84.40586944	      3.93045967	     -8.17805153
      1.05084746	     -8.65083830	     -6.24809192	     86.85918309	      0.21814069	      0.86693191	      0.50070979	     13.47823842	     -7.44764006	      7.54394750	     24.25649567	      0.42335571	     48.54019633	     -3.88012496	      0.00000000	      8.56046690	      8.56584131	     14.72467961	      8.38686085	      0.14637834	     39.92051975	    -17.44232072	      0.00000000	      0.28530362	     -1.01566702	      0.84438170	      0.52983736	     -1.35083714	      0.89715555	      0.46872532	     -2.46949280	      0.89715555	      0.32607351	     -2.46949280	      0.73883399	      0.26493294	     -2.07114819	      0.68606013	      0.16302249	     -1.57326822	      0.63328627	      2.03789525	    -11.48942850	      4.69619769	      0.00000000	      0.00000000	     24.20498309	      2.82197174	     -8.60868218	     19.29618788	    -11.32859412	     61.14423062	     58.25593525	     72.52596747	      3.12387958	     -5.85749304	     15.61871105	    -17.09661504	     57.21983537	     46.59643105	     86.09647947	      0.58443749	     -6.12427972
      1.06779661	     -8.86279080	     -6.38592819	     87.23891983	      0.21919619	      0.86684239	      0.50045388	     13.40942616	     -7.66173921	      7.27656203	     23.95439797	      0.41808311	     48.77089491	     -3.70084789	      0.00000000	      8.41473195	      8.66566943	     15.00874497	      7.83163002	      0.13668773	     39.52507459	    -17.45771135	      0.00000000	      0.30890681	     -1.08265509	      0.78049400	      0.57367084	     -1.43993127	      0.82927487	      0.50750300	     -2.63236759	      0.82927487	      0.35304959	     -2.63236759	      0.68293225	      0.28685086	     -2.20775026	      0.63415137	      0.17650935	     -1.67703274	      0.58537050	      2.20649045	    -12.24721093	      4.34087347	      0.00000000	      0.00000000	     24.73882624	      2.92055966	    -10.69497124	     18.53255990	    -12.29348623	     60.24931921	     58.67264858	     81.21772641	      0.85518891	     -6.63364283	     15.22898700	    -17.99148590	     57.32874778	     44.34931847	     86.53027498	     -2.16791403	     -4.95031572
      1.08474576	     -8.83359249	     -6.54907461	     87.73370100	      0.21979667	      0.86711562	      0.49957791	     13.15761018	     -7.62918241	      7.11637797	     23.37919198	      0.40804388	     48.81416752	     -3.72363701	      0.00000000	      8.20967612	      8.52128681	     15.21534410	      7.16728638	      0.12509275	     39.20391611	    -17.36347026	      0.00000000	      0.33749067	     -1.11447936	      0.66915781	      0.62675392	     -1.48225755	      0.71098018	      0.55446342	     -2.70974511	      0.71098018	      0.38571808	     -2.70974511	      0.58551309	      0.31339383	     -2.27264631	      0.54369072	      0.19284217	     -1.72632853	      0.50186836	      2.41066209	    -12.60721341	      3.72165502	      0.00000000	      0.00000000	     25.40438392	      3.39560095	    -12.24228949	     17.94951576	    -13.60874324	     60.18483800	     59.14038652	     82.10690282	     -0.65360878	     -6.31771138	     14.48447712	    -18.97323830	     56.60586085	     42.39288162	     86.24675647	     -4.48517711	     -3.96684524
      1.10169492	     -8.93115795	     -6.75441482	     88.07261348	      0.22027706	      0.86762296	      0.49894116	     13.09958220	     -7.72389611	      7.08551591	     22.93758920	      0.40033645	     48.85104536	     -3.72807931	      0.00000000	      8.26238733	      8.54790989	     14.99268141	      6.83240589	      0.11924798	     38.81936955	    -17.37168998	      0.00000000	      0.36365268	     -1.14370137	      0.57380903	      0.67533939	     -1.52112283	      0.60967210	      0.59744499	     -2.78079552	      0.60967210	      0.41561865	     -2.78079552	      0.50208290	      0.33768788	     -2.33223584	      0.46621984	      0.20779114	     -1.77159343	      0.43035677	      2.59753472	    -12.93777868	      3.19135370	      0.00000000	      0.00000000	     26.22133841	      3.67939375	    -12.81263096	     17.41228022	    -14.86905308	     59.53429248	     59.18166266	     81.85803174	     -1.18835795	     -6.23272744	     14.06544193	    -19.99727372	     55.96149858	     40.43096902	     85.75016708	     -5.38959680	     -3.33219199
      1.11864407	     -8.59694086	     -6.87337994	     88.86856586	      0.21987157	      0.86855983	      0.49669525	     12.27650175	     -7.52880429	      6.31915579	     21.59268065	      0.37686337	     48.56769862	     -3.56119281	      0.00000000	      7.81665641	      8.15181134	     15.59334430	      5.93006450	      0.10349915	     38.45198179	    -17.38768710	      0.00000000	      0.39042997	     -1.12909560	      0.44712123	      0.72506749	     -1.50169715	      0.47506631	      0.64143739	     -2.74528304	      0.47506631	      0.44622241	     -2.74528304	      0.39123108	      0.36255327	     -2.30245174	      0.36328600	      0.22309168	     -1.74896908	      0.33534093	      2.78880222	    -12.77255523	      2.48675416	      0.00000000	      0.00000000	     26.52751879	      3.20080507	    -14.97634629	     15.81768982	    -16.31443216	     57.37921635	     59.83937575	     77.66405313	     -2.16071506	     -5.15139782	     13.41339651	    -20.92866178	     55.85783421	     39.10747037	     82.90106679	     -7.62369364	     -2.99882485
      1.13559322	     -8.43787557	     -6.91183465	     89.36512176	      0.21982443	      0.86936894	      0.49484622	     11.67772584	     -7.40838622	      6.06297767	     20.68005740	      0.36093509	     48.34853491	     -3.63176138	      0.00000000	      7.53691476	      7.94833363	     15.62464849	      5.46184121	      0.09532711	     38.26429710	    -17.19215984	      0.00000000	      0.41195434	     -1.11360055	      0.31704870	      0.76504040	     -1.48108873	      0.33686424	      0.67679978	     -2.70760837	      0.33686424	      0.47082261	     -2.70760837	      0.27741761	      0.38254080	     -2.27085423	      0.25760207	      0.23539071	     -1.72496724	      0.23778653	      2.94254864	    -12.59727209	      1.76332976	      0.00000000	      0.00000000	     26.82898943	      3.39105562	    -14.78992619	     14.53536434	    -17.30910212	     54.93902034	     59.80658363	     75.25697666	     -2.18349744	     -5.17494576	     12.55899335	    -21.80533518	     54.83911982	     37.80104054	     81.74665516	     -8.20540045	     -2.79158843
      1.15254237	     -8.21120578	     -6.70423452	     90.08032780	      0.21953189	      0.87039164	      0.49285852	     10.61342218	     -7.21386002	      5.74944291	     19.53739263	      0.34099183	     47.91456387	     -4.00268547	      0.00000000	      6.97180541	      7.70757820	     16.22939490	      5.01879708	      0.08759453	     38.05929428	    -17.23177808	      0.00000000	      0.40376264	     -1.08741246	      0.10857290	      0.74982760	     -1.44625857	      0.11535871	      0.66334164	     -2.64393465	      0.11535871	      0.46146032	     -2.64393465	      0.09500129	      0.37493399	     -2.21745149	      0.08821548	      0.23070997	     -1.68440190	      0.08142968	      2.88403618	    -12.30102721	      0.60384991	      0.00000000	      0.00000000	     26.82739043	      3.47013771	    -14.28387854	     13.90118123	    -18.19937436	     53.36508251	     59.48759999	     70.66879668	      0.11771530	     -4.14997544	     11.88245714	    -22.77572081	     55.14449140	     36.39058011	     81.18334404	     -8.45552741	     -2.67492213
